HIERARCHY
ROOT Hips
{
	OFFSET 0.0000 0.0000 0.0000
	CHANNELS 6 Xposition Yposition Zposition Zrotation Xrotation Yrotation
	JOINT Ab
	{
		OFFSET -0.0000 8.1305 -0.0000
		CHANNELS 3 Zrotation Xrotation Yrotation
		JOINT Chest
		{
			OFFSET -0.0000 26.2902 -0.0000
			CHANNELS 3 Zrotation Xrotation Yrotation
			JOINT Neck
			{
				OFFSET -0.0000 26.2902 0.0000
				CHANNELS 3 Zrotation Xrotation Yrotation
				JOINT Head
				{
					OFFSET -0.0000 10.8167 0.0000
					CHANNELS 3 Zrotation Xrotation Yrotation
					End Site
					{
						OFFSET -0.0000 16.7167 0.0000
					}
				}
			}
			JOINT LeftCollar
			{
				OFFSET -0.0000 26.2902 0.0000
				CHANNELS 3 Zrotation Xrotation Yrotation
				JOINT LeftShoulder
				{
					OFFSET 19.6667 -0.0000 0.0000
					CHANNELS 3 Zrotation Xrotation Yrotation
					JOINT LeftElbow
					{
						OFFSET 27.2190 0.0000 0.0000
						CHANNELS 3 Zrotation Xrotation Yrotation
						JOINT LeftWrist
						{
							OFFSET 30.7431 0.0000 0.0000
							CHANNELS 3 Zrotation Xrotation Yrotation
							End Site
							{
								OFFSET 0.0000 -14.7500 0.0000
							}
						}
					}
				}
			}
			JOINT RightCollar
			{
				OFFSET -0.0000 26.2902 0.0000
				CHANNELS 3 Zrotation Xrotation Yrotation
				JOINT RightShoulder
				{
					OFFSET -19.6667 0.0000 0.0000
					CHANNELS 3 Zrotation Xrotation Yrotation
					JOINT RightElbow
					{
						OFFSET -27.2190 0.0000 0.0000
						CHANNELS 3 Zrotation Xrotation Yrotation
						JOINT RightWrist
						{
							OFFSET -30.7431 0.0000 0.0000
							CHANNELS 3 Zrotation Xrotation Yrotation
							End Site
							{
								OFFSET -0.0000 -14.7500 0.0000
							}
						}
					}
				}
			}
		}
	}
	JOINT LeftHip
	{
		OFFSET 11.8000 0.0000 0.0000
		CHANNELS 3 Zrotation Xrotation Yrotation
		JOINT LeftKnee
		{
			OFFSET -0.0000 -39.7832 0.0000
			CHANNELS 3 Zrotation Xrotation Yrotation
			JOINT LeftAnkle
			{
				OFFSET -0.0000 -41.7317 0.0000
				CHANNELS 3 Zrotation Xrotation Yrotation
				End Site
				{
					OFFSET -0.0000 -4.9167 16.7167
				}
			}
		}
	}
	JOINT RightHip
	{
		OFFSET -11.8000 0.0000 0.0000
		CHANNELS 3 Zrotation Xrotation Yrotation
		JOINT RightKnee
		{
			OFFSET -0.0000 -39.7832 0.0000
			CHANNELS 3 Zrotation Xrotation Yrotation
			JOINT RightAnkle
			{
				OFFSET -0.0000 -41.7317 0.0000
				CHANNELS 3 Zrotation Xrotation Yrotation
				End Site
				{
					OFFSET -0.0000 -4.9167 16.7167
				}
			}
		}
	}
}
MOTION
Frames: 17
Frame Time: 0.010000
-4.0661 85.4646 77.2409 357.6583 349.9982 175.3373 358.2959 348.1937 3.9332 1.9829 10.9850 3.9157 352.1880 345.9280 358.2133 1.9485 8.3587 359.0436 336.8506 357.1147 14.1485 315.8625 41.7289 4.5029 0.9884 359.3145 316.6018 87.5603 354.3572 335.8992 27.5261 356.1619 344.4894 28.4754 51.0527 21.3134 330.8980 343.9716 57.5978 262.0916 352.0218 353.9050 352.4176 324.6707 359.7622 356.9348 27.4309 358.9879 1.2113 352.6839 22.2569 0.5508 17.3508 3.1837 5.5327 18.4240 17.4264 0.4601 330.5000 328.0996 
-4.0541 85.4029 75.8062 357.0448 350.0835 175.5230 357.4184 348.1047 3.7115 1.9577 11.1695 3.7860 352.4404 345.5215 358.2272 1.6894 8.5228 359.0619 336.6954 357.0394 14.4237 316.0654 42.4399 3.3896 2.0036 358.8297 316.4053 87.8935 354.3488 336.8494 27.7474 356.1262 344.3889 29.6501 50.6702 19.8912 331.5654 344.8183 56.0936 262.2788 351.9300 354.6129 351.4535 324.5147 357.9436 356.3614 29.4446 359.7094 1.8985 352.3701 23.3398 359.8102 16.9323 3.0743 5.6684 20.9203 17.0702 2.0517 331.0541 329.1805 
-4.0532 85.3894 74.4153 356.4118 350.0842 175.8269 356.5426 348.0267 3.4873 1.9236 11.2795 3.6561 352.5502 345.2176 358.1656 1.5627 8.5674 359.0114 336.3871 356.9558 14.5648 316.8206 42.9569 2.0542 2.6098 358.6138 316.0497 87.8048 354.4559 337.5956 27.9587 356.0740 344.3517 31.1793 49.9344 18.0170 332.3129 345.7043 54.6202 262.8625 351.9319 355.4081 350.4632 324.4819 355.8727 355.4971 31.0111 1.1720 2.6314 352.2322 23.3272 359.0596 16.1654 2.9273 5.9231 23.7885 16.6009 3.7215 331.9581 330.1764 
-4.0503 85.4074 73.0393 355.9120 350.1444 176.2356 355.8229 348.0930 3.2736 1.8428 11.3331 3.5205 352.6062 344.9932 358.0797 1.6055 8.5400 358.9309 336.1329 356.9097 14.5079 317.4085 43.4341 0.8689 3.2358 358.3637 315.6866 87.8796 354.2680 338.0620 28.1178 356.0459 344.4140 33.1535 49.0684 15.6284 333.0063 346.4872 53.1742 263.5328 351.7899 356.1200 349.6155 324.6792 354.6720 355.0190 32.3450 1.7188 3.3391 352.0638 23.2229 358.4262 15.1818 2.2402 6.0991 27.0975 16.5069 5.5087 333.2767 331.1357 
-4.0563 85.4402 71.6523 355.5561 350.3111 176.5693 355.4973 348.1691 3.0937 1.4757 11.6199 3.4025 352.7275 344.5158 358.0565 1.4781 8.7941 358.9362 336.2022 356.9257 14.5559 317.6844 44.0740 359.4726 4.1616 357.8996 315.4230 87.5563 354.1454 338.2484 28.2695 356.0575 344.7591 35.2876 48.1080 12.9946 333.6914 347.2247 51.7802 263.9236 351.8900 357.0696 348.9480 325.2406 354.3690 355.1025 33.3040 1.5153 3.8775 351.8688 23.3443 357.7689 14.1226 1.6615 6.5215 30.5470 16.2537 7.0984 335.0902 331.8917 
-4.0681 85.4740 70.2824 355.3247 350.5734 176.8396 355.3524 348.4563 2.9869 1.0881 11.6739 3.3406 352.6498 344.4327 358.0462 1.6023 8.8046 358.9347 336.2881 356.9336 14.5972 317.9015 44.9011 358.2228 5.2217 357.3807 314.9960 87.6440 354.1031 339.1615 28.4490 356.0963 345.1078 37.0912 47.3074 10.5135 334.3452 347.9100 50.3472 264.4134 352.1769 357.9472 348.3997 326.1423 354.3946 355.4891 33.9058 0.9772 4.4773 351.6047 23.3580 357.0780 12.9739 1.0290 7.1482 34.1118 15.4423 8.4886 337.3753 332.9387 
-4.0712 85.5002 68.8862 355.2299 350.9589 177.0806 355.3683 348.8491 2.9156 0.6904 11.6998 3.2927 352.7258 344.3590 358.0722 1.5405 9.0310 358.9536 336.4434 356.9431 14.5884 318.0831 45.7756 356.9982 6.3042 356.8670 314.5036 87.8631 354.0070 340.2299 28.6233 356.1472 345.3731 38.6166 46.6481 8.2430 335.0024 348.5619 48.9573 264.8316 352.5338 358.6350 348.0150 327.3829 354.7471 356.1024 34.1980 0.1766 5.1423 351.1467 23.4200 356.4408 11.8594 0.5030 7.9769 37.6606 14.4264 9.7366 339.9256 333.7726 
-4.0699 85.5440 67.5026 355.1995 351.3327 177.2346 355.4589 349.2607 2.8679 0.3455 11.6364 3.2560 352.7674 344.4490 358.1363 1.5479 9.2176 359.0089 336.6812 356.9842 14.6815 318.1933 46.7172 355.6501 7.3995 356.3335 313.9750 88.3516 354.1741 341.7171 28.7630 356.2064 345.6579 39.9577 45.9516 5.9928 335.7721 349.2461 47.7170 265.3556 352.7613 359.4376 347.7603 328.6770 355.3060 356.7501 34.3500 359.5028 5.6964 350.5061 23.3058 355.8266 10.5862 0.4174 9.1610 41.2787 13.0080 9.4336 343.1336 334.4897 
-4.0491 85.6001 66.1591 355.1461 351.6977 177.2805 355.3901 349.7908 2.8739 0.2018 11.3007 3.2651 352.9638 344.7075 358.2283 1.3232 9.4287 359.0716 336.7428 356.9593 14.7971 318.5622 47.6344 354.3803 8.3705 355.8985 313.2861 89.0071 354.3093 343.1437 28.9513 356.2667 346.0127 41.1709 45.1213 3.5941 336.5617 349.8513 46.5943 266.2296 352.9251 0.8018 347.6756 330.0666 355.6667 356.9652 34.2183 359.2789 6.1679 350.0390 23.1677 355.2314 9.1050 0.1938 10.1605 45.0626 12.2721 8.2118 345.8481 334.4235 
-4.0258 85.6751 64.8360 355.1128 351.9711 177.3575 355.4143 350.1647 2.7708 359.9416 11.1578 3.1677 353.2113 344.8353 358.3460 1.1823 9.6115 359.1568 337.0928 356.9891 14.9741 318.6634 48.8022 352.8386 9.7839 355.1341 312.7503 89.2383 354.2228 344.5557 29.0393 356.3290 346.1535 42.1591 44.3988 1.8010 337.3879 350.5034 45.3579 266.9578 353.0397 2.3470 347.6318 331.3676 356.0207 357.1360 34.0733 358.9882 6.4409 349.4897 23.1451 354.6196 7.4646 0.2676 11.7468 48.6455 11.4593 6.7793 348.0190 333.9467 
-4.0005 85.7788 63.5296 355.0289 352.1574 177.3715 355.3946 350.4191 2.6432 359.7058 11.0650 3.0535 353.3294 344.9559 358.4973 1.2226 9.7615 359.2841 337.4005 356.9965 15.2639 319.0760 50.0131 351.0430 11.2084 354.3996 312.1233 89.7263 354.1366 345.9300 29.0954 356.3798 346.3192 43.0133 43.6416 0.1308 338.3030 351.1811 44.2652 267.5669 353.0387 3.9374 347.6105 332.6239 356.4044 357.2276 33.7855 358.8574 6.5764 348.9692 23.0343 354.0081 5.6100 0.4059 13.5312 52.1416 10.6503 5.7118 348.6408 333.1315 
-3.9681 85.9058 62.2349 354.9414 352.2902 177.3718 355.2666 350.6151 2.5116 359.6527 10.9383 2.9299 353.4586 345.1241 358.6808 1.2070 9.9119 359.4423 337.5220 356.9513 15.5674 319.9446 51.0112 349.0765 12.2792 353.9117 311.2466 90.4161 354.2094 346.9771 29.0578 356.4358 346.4249 43.7307 42.8853 358.6200 339.2404 351.8148 43.3146 268.1433 353.0254 5.5128 347.6725 333.8792 356.7073 357.1545 33.3596 358.7585 6.7891 348.5411 23.0223 353.4601 3.6218 0.5653 15.4668 55.3888 9.4389 5.0077 347.8988 332.1852 
-3.9337 86.0591 60.9697 354.9116 352.3572 177.4651 355.1957 350.7801 2.3313 359.6076 10.7987 2.7501 353.7599 345.2659 358.8496 0.9568 10.0904 359.5806 337.6373 356.9067 15.8351 321.0548 52.0148 346.9305 13.3009 353.3723 310.2680 90.6694 354.1414 347.9205 29.0055 356.4525 346.3587 44.2833 42.2493 357.3669 340.1569 352.3975 42.4674 268.9449 353.1683 7.1562 347.8021 335.0871 356.7733 356.9619 32.8722 358.6944 6.8711 348.1385 23.0818 352.9981 1.5375 0.8161 17.9641 58.1411 7.3722 3.8291 346.9495 331.0917 
-3.9014 86.2426 59.7182 354.8870 352.3749 177.5801 355.0781 350.8648 2.1324 359.6864 10.6957 2.5495 353.9649 345.4582 359.0146 0.8137 10.1916 359.7195 337.6781 356.8692 16.0122 322.1159 52.8461 344.9505 14.2511 352.8180 309.1140 90.9621 354.2134 348.9448 28.9427 356.4587 346.2927 44.6150 41.4212 356.2372 341.1458 352.9749 41.7131 269.5542 353.1976 8.6281 347.9430 336.3027 356.8320 356.7741 32.2715 358.6632 6.9623 347.8089 23.0811 352.5351 359.3979 0.7276 20.2066 60.5290 5.5768 2.0504 346.3561 329.9435 
-3.8552 86.4340 58.4684 355.0026 352.4404 177.8475 355.0706 350.9777 1.8663 359.8129 10.6885 2.2646 354.3071 345.5193 359.1440 0.4303 10.3977 359.8310 337.6352 356.8459 16.0168 323.2935 53.3751 343.0696 14.9851 352.3328 307.7353 91.1184 354.3332 349.4790 28.8635 356.4312 346.1038 44.7830 40.6074 355.3358 342.1133 353.5004 40.9954 269.9013 352.9253 9.9845 348.2020 337.5969 356.9533 356.6763 31.6347 358.4714 6.9304 347.4698 23.0096 352.1930 357.3396 0.1815 22.0006 62.6367 4.1691 0.8132 345.7214 329.1630 
-3.8044 86.6369 57.2609 355.1803 352.4357 178.1159 355.1443 350.9523 1.5893 359.9330 10.7778 1.9694 354.6249 345.6225 359.3431 0.1723 10.4411 0.0156 337.5672 356.8277 16.0426 324.5564 53.7424 341.1579 15.6547 351.8260 306.4317 91.5295 354.2732 350.0444 28.7276 356.4213 345.9792 44.9941 39.9315 354.4488 342.8270 353.8282 40.5409 270.4903 353.2735 10.6058 348.5182 338.8416 357.0535 356.5892 30.9001 358.3937 6.9496 347.2132 22.8430 351.9299 355.2616 359.9293 24.4126 64.2640 1.9394 359.7030 345.1995 328.4631 
-3.7751 86.7736 56.4638 355.3568 352.4657 178.3013 355.2201 351.0142 1.4174 0.0773 10.7175 1.7797 354.8209 345.9177 359.5090 359.9522 10.4012 0.1611 337.4137 356.7804 16.0662 325.6259 53.8967 339.8777 16.0821 351.5525 305.6824 91.5104 354.1541 350.1040 28.6174 356.4063 345.8705 44.9057 39.5510 353.7908 343.1547 353.8653 40.9407 270.4427 353.2667 10.6999 348.8134 339.7418 357.5468 356.7260 30.3348 358.0154 6.9978 347.0762 22.6214 351.8060 353.9752 359.6890 25.8295 65.0438 0.5978 359.2229 345.2415 328.0508 
